<svg xmlns="http://www.w3.org/2000/svg" viewBox="0 0 1000 1000">
	<path class="st1" d="M219.119 941.69h577.03c22.843 0 41.383-18.539 41.383-41.492V695.495c-7.394-24.829-28.582-27.146-48.445-8.276-1.766 0-21.63 24.388-67.315 24.388-54.514-1.656-98.986-41.934-107.262-94.572h-.552c-.432-3.864-.432-25.16 0-29.023h.552c8.276-52.527 52.748-92.916 107.262-94.571 45.686 0 65.439 24.388 67.315 24.388 19.311 18.318 40.72 13.904 48.445-8.056l.096-189.364c0-19.201-13.243-36.306-31.01-40.94-3.311.883-179.763 0-179.763 0-43.479 3.532-58.707-25.713-34.54-51.204 0-1.766 24.388-21.629 24.388-67.315-1.656-54.513-42.044-98.985-94.572-107.262v-.552c-3.864-.432-25.16-.432-29.023 0v.552c-52.527 8.277-92.916 52.749-94.681 107.262 0 45.686 24.387 65.44 24.387 67.315 24.278 25.491 14.125 53.52-34.32 51.203 0 0-176.452.884-179.762 0-17.878 4.637-31.12 21.63-31.12 40.941V900.2c0 22.842 18.54 41.492 41.492 41.492z" />
</svg>
